<?xml version="1.0" standalone="no"?>
<!DOCTYPE svg PUBLIC "-//W3C//DTD SVG 20010904//EN"
 "http://www.w3.org/TR/2001/REC-SVG-20010904/DTD/svg10.dtd">
<svg version="1.0" xmlns="http://www.w3.org/2000/svg"
 width="500.000000pt" height="500.000000pt" viewBox="0 0 500.000000 500.000000"
 preserveAspectRatio="xMidYMid meet">
<metadata>
Created by potrace 1.14, written by Peter Selinger 2001-2017
</metadata>
<g transform="translate(0.000000,500.000000) scale(0.100000,-0.100000)"
fill="#000000" stroke="none">
<path d="M2530 4780 l0 -30 -72 -1 c-134 -3 -145 -4 -162 -18 -14 -12 -16 -12
-11 2 5 12 -1 15 -32 12 -29 -2 -38 -7 -39 -21 -1 -10 -2 -25 -3 -32 -1 -7 -9
-12 -18 -11 -10 1 -66 1 -125 0 l-108 -1 0 -29 c0 -28 -1 -28 -62 -30 -34 -1
-63 -3 -65 -5 -2 -1 -4 -15 -5 -29 -2 -23 -7 -27 -33 -28 -16 -1 -33 -1 -37 0
-5 0 -8 -5 -8 -11 0 -10 -3 -9 -9 1 -5 7 -14 10 -20 7 -15 -10 -14 -53 2 -59
6 -3 -9 -6 -34 -6 -48 -1 -68 -18 -46 -40 12 -12 11 -13 -35 -15 -27 -1 -33
-5 -30 -22 1 -12 -5 -27 -15 -35 -16 -13 -17 -12 -4 3 14 19 9 48 -8 48 -6 0
-8 -6 -5 -14 3 -8 1 -23 -6 -33 -10 -17 -11 -17 -6 2 3 11 1 27 -5 35 -8 12
-10 12 -8 -5 3 -41 -1 -45 -39 -45 -38 0 -38 0 -34 -35 4 -33 3 -35 -27 -35
l-31 0 0 -66 c0 -56 -2 -65 -14 -55 -10 8 -16 9 -21 1 -3 -6 -11 -8 -16 -5 -5
4 -9 -21 -9 -59 0 -37 -4 -66 -10 -66 -5 0 -10 -5 -10 -11 0 -5 6 -7 13 -3 8
5 8 2 -2 -9 -9 -12 -10 -17 -2 -17 7 0 9 -5 6 -11 -5 -6 -12 -4 -21 8 -13 16
-14 16 -8 1 5 -14 1 -18 -15 -18 -18 0 -21 -6 -22 -47 -1 -27 0 -70 1 -98 2
-27 3 -81 4 -120 0 -38 5 -73 10 -77 13 -9 37 2 30 13 -3 5 -9 7 -14 4 -5 -3
-11 -1 -14 4 -4 5 -2 12 3 16 5 3 8 14 6 25 -3 13 0 18 7 14 7 -4 8 -2 4 5 -4
6 -13 9 -19 5 -7 -3 -3 2 8 11 11 9 19 22 17 30 -1 7 2 16 8 20 6 4 7 -1 3
-11 -5 -13 -3 -15 8 -9 8 5 6 -1 -4 -13 -15 -16 -17 -24 -7 -39 10 -15 11 -16
6 -1 -3 10 -2 20 3 22 4 3 7 -13 7 -35 0 -21 -4 -39 -9 -39 -5 0 -3 -8 4 -17
8 -9 9 -14 3 -10 -16 9 -26 -20 -11 -30 16 -10 16 -17 17 -298 1 -233 5 -265
34 -265 6 0 4 5 -4 10 -11 7 -11 10 -2 10 7 0 10 5 6 11 -4 8 -9 7 -16 -2 -8
-11 -9 -11 -5 1 6 22 40 18 43 -5 3 -23 -14 -37 -38 -29 -14 4 -16 -9 -17
-126 l-2 -130 31 0 30 0 1 -87 c1 -49 1 -91 1 -95 -1 -3 5 -9 14 -12 8 -3 12
-2 9 4 -3 6 -1 10 4 10 6 0 11 -5 11 -11 0 -5 5 -7 10 -4 14 9 12 -28 -2 -44
-10 -11 -10 -13 0 -7 12 7 18 -46 12 -111 -2 -25 24 -32 34 -10 3 6 4 3 3 -8
-2 -14 -9 -19 -22 -17 -11 2 -17 1 -14 -2 4 -4 19 -9 35 -11 16 -2 23 -2 16 1
-6 3 -10 10 -6 15 13 22 20 5 21 -53 1 -35 2 -78 4 -95 l2 -33 94 0 93 0 1
-65 c1 -36 2 -72 2 -80 0 -45 -1 -46 -65 -46 -120 0 -123 -1 -125 -33 0 -19 2
-24 7 -15 5 7 6 18 2 24 -3 5 1 4 10 -3 14 -11 18 -10 26 4 8 14 10 13 10 -10
0 -14 -4 -29 -9 -32 -5 -3 -6 1 -3 9 3 8 -2 14 -11 14 -9 0 -14 -6 -11 -14 3
-7 2 -12 -2 -12 -22 4 -27 -6 -25 -48 1 -31 -1 -42 -7 -33 -5 8 -7 17 -4 21 2
4 -8 4 -23 0 l-28 -7 -3 -115 c-3 -129 -5 -141 -27 -133 -9 4 -15 1 -15 -7 0
-11 -2 -11 -10 1 -6 10 -9 1 -8 -30 0 -25 5 -51 12 -59 8 -12 8 -13 -1 -7 -14
8 -17 -6 -13 -56 1 -27 -3 -31 -42 -31 -25 0 -18 -18 17 -46 17 -13 22 -21 12
-18 -34 12 -47 -3 -47 -57 0 -36 -3 -47 -10 -36 -5 8 -10 10 -10 4 0 -6 3 -14
7 -18 4 -4 8 -22 8 -40 1 -34 -17 -44 -42 -23 -18 14 -16 23 8 33 19 9 20 11
5 23 -14 12 -16 12 -10 -3 4 -12 2 -15 -9 -11 -11 5 -14 -1 -13 -22 1 -27 0
-28 -59 -31 -62 -3 -78 -14 -69 -47 4 -16 0 -20 -20 -21 -14 -1 -24 1 -22 5 3
4 0 13 -6 21 -8 12 -9 12 -4 -3 3 -10 0 -20 -7 -22 -6 -3 -75 -6 -151 -7 -113
-2 -140 -6 -144 -18 -4 -11 -2 -13 9 -5 24 18 81 12 95 -11 13 -18 12 -20 -15
-19 -16 0 -27 4 -24 8 3 5 11 6 19 3 8 -3 14 -1 14 4 0 20 -19 19 -46 -2 -19
-15 -24 -16 -15 -5 17 21 8 22 -25 1 -22 -15 -24 -15 -18 0 5 12 2 15 -10 10
-9 -3 -13 -10 -10 -15 4 -7 -93 -12 -229 -12 -9 0 -17 -4 -17 -9 0 -6 7 -7 16
-4 8 3 12 2 9 -4 -5 -9 6 -14 26 -12 3 1 6 -5 6 -11 0 -9 -34 -13 -121 -16
-115 -2 -154 -13 -123 -33 9 -6 9 -8 0 -8 -7 0 -10 -7 -7 -18 5 -14 4 -15 -5
-2 -6 8 -11 11 -11 5 0 -5 -24 -11 -53 -13 -28 -1 -53 -7 -55 -12 -2 -6 -8
-10 -13 -10 -6 0 -8 4 -5 8 2 4 -6 8 -20 8 -13 0 -24 -4 -24 -8 0 -4 5 -8 11
-8 5 0 8 -4 4 -9 -3 -5 0 -13 6 -17 7 -4 9 -3 5 4 -11 18 11 23 25 5 10 -12
10 -14 2 -9 -7 4 -13 2 -13 -3 0 -6 -8 -10 -18 -9 -9 1 -47 0 -84 0 l-67 -2
-1 -445 0 -445 2500 0 2500 0 0 380 -1 380 -37 1 c-20 1 -41 1 -46 0 -5 -1 -5
4 1 11 6 7 11 29 11 48 0 19 -3 28 -7 20 -3 -8 -16 -15 -28 -16 -19 0 -23 5
-23 27 0 15 6 30 13 32 10 4 10 6 0 6 -7 1 -13 14 -13 30 0 28 -3 30 -42 33
-29 2 -42 7 -40 16 1 8 -2 11 -8 7 -6 -3 -8 -11 -5 -16 10 -14 -83 -5 -97 10
-11 11 -10 12 1 6 9 -5 12 -3 9 6 -6 17 -27 19 -48 5 -12 -8 -13 -8 -3 4 17
18 53 23 53 7 0 -8 4 -7 10 3 6 10 10 11 10 3 0 -7 5 -13 11 -13 5 0 7 5 3 12
-4 7 -3 8 5 4 15 -10 3 -29 -15 -22 -15 6 -19 -9 -5 -18 16 -10 37 4 38 24 2
25 -13 29 -142 29 -213 0 -250 4 -247 23 2 10 -3 18 -10 19 -7 0 -4 4 7 9 18
8 -77 14 -207 13 -21 0 -38 2 -38 4 0 13 22 43 32 43 6 0 4 -8 -5 -18 -14 -15
-15 -19 -2 -19 8 0 12 4 9 9 -3 4 1 5 9 2 19 -7 31 12 15 23 -7 4 -71 8 -143
9 -71 1 -181 3 -242 4 l-113 2 -2 47 c0 25 -1 53 0 61 1 9 -8 16 -19 17 -15 1
-18 -2 -11 -10 17 -23 20 -44 6 -44 -8 0 -15 5 -16 11 0 6 -2 16 -2 21 -1 6
-5 15 -8 21 -4 5 -8 40 -9 77 -1 37 -6 67 -11 67 -4 0 -8 5 -8 11 0 5 5 7 11
3 7 -4 10 1 7 12 -2 11 -12 20 -23 20 -11 1 -25 2 -31 3 -8 1 -12 45 -13 143
-1 79 -3 148 -3 154 -1 6 -12 12 -25 11 -17 0 -21 -3 -13 -12 11 -13 4 -25
-14 -25 -7 0 -6 3 1 8 9 5 3 17 -18 40 -16 18 -26 32 -20 32 6 0 14 -7 19 -16
7 -12 9 -8 10 17 1 24 -2 29 -8 19 -7 -10 -10 -11 -10 -2 0 6 -5 12 -11 12 -5
0 -7 -6 -3 -12 4 -7 -2 -4 -14 6 -16 14 -20 26 -16 43 5 17 3 24 -7 23 -39 -6
-58 1 -56 19 0 11 5 17 9 15 5 -3 6 -9 4 -13 -3 -4 8 -7 25 -7 19 0 26 3 20 9
-6 6 -7 17 -1 28 6 9 11 74 12 143 2 100 5 126 16 126 8 0 12 -6 8 -15 -3 -8
-1 -15 4 -15 6 0 10 6 10 13 0 8 15 14 37 15 21 2 41 8 45 15 4 7 8 7 8 2 0
-6 15 -11 33 -12 17 -1 24 1 15 4 -10 2 -18 9 -18 14 0 6 -6 7 -12 3 -9 -5 -9
-2 1 9 7 9 20 17 27 17 9 0 14 12 15 33 1 31 5 84 8 100 2 15 34 2 37 -15 1
-11 -3 -15 -12 -11 -10 4 -13 0 -8 -13 5 -16 4 -16 -5 -4 -7 9 -11 10 -11 3 0
-6 4 -14 10 -18 5 -3 7 -13 3 -23 -3 -9 3 -6 13 8 16 21 19 45 21 145 1 66 2
135 2 153 1 29 4 32 31 32 33 0 32 -2 33 118 0 53 5 60 24 41 8 -8 13 -7 19 3
11 16 14 219 3 212 -4 -2 -9 1 -11 7 -2 7 -9 5 -17 -5 -12 -14 -12 -16 2 -10
13 4 15 0 13 -23 -2 -15 -1 -32 2 -38 10 -17 8 -134 -2 -128 -5 4 -6 0 -1 -8
7 -11 5 -11 -11 1 -29 22 -30 24 -12 17 10 -3 20 -2 23 3 5 9 -5 13 -25 12 -3
0 -6 69 -8 154 -2 159 -3 157 39 157 13 0 15 31 18 242 3 268 4 281 20 277 15
-3 14 14 -2 30 -7 7 -13 30 -13 51 0 37 10 49 20 25 3 -9 9 -7 20 6 14 17 16
17 16 4 0 -16 -16 -32 -32 -33 -3 0 -10 -4 -15 -9 -5 -6 -2 -6 7 -1 13 8 13 7
0 -11 -14 -18 -14 -18 4 -4 16 12 18 12 11 1 -6 -10 -4 -12 5 -6 9 6 11 4 5
-6 -7 -12 -5 -12 6 -1 19 18 22 115 3 108 -9 -3 -14 1 -14 11 0 13 -3 14 -12
5 -8 -8 -8 -15 2 -27 7 -8 10 -18 7 -21 -6 -6 -37 48 -37 66 0 5 5 10 11 10 6
0 9 -7 5 -15 -9 -25 2 -17 17 11 9 17 17 23 21 15 4 -6 2 -11 -4 -11 -13 0 -9
-21 5 -23 5 -1 10 9 10 23 1 22 -3 26 -26 25 -15 0 -25 -3 -22 -7 2 -5 -1 -8
-6 -8 -6 0 -12 19 -12 43 -1 23 -2 69 -3 101 -1 49 -5 60 -20 62 -10 1 -15 0
-12 -3 3 -4 1 -12 -6 -20 -6 -8 -7 -13 -2 -12 5 1 15 1 23 0 19 -1 6 -14 -19
-18 -15 -2 -18 3 -15 26 4 30 -16 48 -37 34 -7 -4 -8 -1 -4 6 5 7 14 10 22 7
10 -4 14 3 14 23 0 18 -5 28 -15 28 -8 0 -15 -5 -15 -12 0 -6 -6 -19 -13 -29
-12 -16 -14 -16 -14 -2 0 9 4 16 9 16 4 0 8 7 8 16 0 8 -4 12 -10 9 -5 -3 -10
3 -10 14 0 12 -4 21 -10 21 -5 0 -10 5 -10 11 0 5 5 7 10 4 6 -3 10 -2 10 4 0
14 -23 19 -42 9 -16 -7 -18 -4 -18 26 0 26 -4 35 -17 35 -10 0 -27 2 -38 5
-11 2 -22 5 -24 5 -2 1 2 7 8 15 20 23 -2 54 -34 49 -22 -5 -25 -2 -25 26 0
29 -3 31 -33 31 -23 0 -40 7 -53 23 l-19 22 21 -18 c21 -17 22 -17 22 8 0 25
-1 25 -94 25 l-94 0 0 35 c0 37 -3 38 -56 35 -18 -1 -35 3 -39 9 -4 7 1 8 12
4 10 -3 15 -3 11 2 -4 4 -3 14 3 22 6 7 10 14 8 14 -6 3 -84 7 -177 10 l-84 2
4 29 c5 31 19 28 -129 31 -55 1 -61 3 -57 21 2 11 -2 24 -9 28 -9 6 -9 8 0 8
7 0 17 -8 22 -17 6 -11 11 -13 11 -5 0 7 5 10 11 6 8 -5 8 -9 -1 -14 -8 -5 -8
-10 -2 -14 5 -3 13 1 16 10 10 27 -23 41 -103 43 -41 1 -77 4 -80 6 -2 3 1 11
7 18 16 19 -4 37 -40 37 -24 0 -28 -4 -28 -30z m-257 -57 c-7 -18 12 -17 27 2
7 8 18 15 24 14 7 0 6 -2 -2 -6 -6 -2 -9 -9 -6 -14 3 -6 12 -5 21 3 23 19 61
18 58 -1 -1 -9 1 -21 6 -26 5 -7 -14 -10 -56 -10 -35 0 -61 3 -59 7 3 5 1 8
-5 8 -5 0 -12 -4 -15 -9 -10 -16 -39 -5 -42 17 -3 13 3 22 14 24 31 7 40 5 35
-9z m-283 -63 c0 -5 -5 -10 -11 -10 -5 0 -7 5 -4 10 3 6 8 10 11 10 2 0 4 -4
4 -10z m-250 -142 c0 -9 3 -8 10 2 5 8 11 12 14 10 2 -3 -1 -13 -8 -22 -11
-15 -13 -15 -24 3 -7 11 -8 19 -2 19 5 0 10 -6 10 -12z m1830 -232 c0 -2 -7
-7 -16 -10 -8 -3 -12 -2 -9 4 6 10 25 14 25 6z m10 -20 c0 -2 -8 -10 -17 -17
-16 -13 -17 -12 -4 4 13 16 21 21 21 13z m62 -38 c-9 -9 -8 -16 6 -32 17 -20
17 -20 -9 0 -24 17 -25 20 -10 31 21 16 28 16 13 1z m131 -224 c-3 -7 -13 -12
-24 -11 -12 1 -15 5 -9 11 6 6 5 15 -3 25 -9 12 -9 13 1 7 7 -4 12 -2 12 5 0
7 6 4 14 -6 8 -11 12 -25 9 -31z m74 -239 c0 -8 -4 -12 -9 -9 -5 3 -6 10 -3
15 9 13 12 11 12 -6z m-102 -485 c-8 -14 8 -13 22 1 9 9 11 8 9 -4 -1 -9 -5
-20 -9 -23 -4 -4 -2 -13 5 -21 9 -11 7 -12 -8 -7 -18 7 -18 7 -1 -13 18 -21
14 -30 -13 -29 -20 1 -24 106 -4 106 3 0 2 -4 -1 -10z m-2360 -260 c3 -5 1
-10 -4 -10 -6 0 -11 5 -11 10 0 6 2 10 4 10 3 0 8 -4 11 -10z m22 -392 c-3 -8
-6 -5 -6 6 -1 11 2 17 5 13 3 -3 4 -12 1 -19z m39 2 c0 -12 -4 -16 -9 -11 -5
5 -6 14 -3 20 10 15 12 14 12 -9z m2196 -127 c-12 -2 -20 -8 -17 -13 3 -5 1
-11 -4 -14 -7 -5 -8 11 -2 32 1 1 11 1 24 1 l22 -2 -23 -4z m-2158 -49 c3 -8
2 -12 -4 -9 -6 3 -10 10 -10 16 0 14 7 11 14 -7z m36 10 c0 -8 -19 -13 -24 -6
-3 5 1 9 9 9 8 0 15 -2 15 -3z m2130 -4 c0 -5 -4 -10 -10 -10 -5 0 -10 5 -10
10 0 6 5 10 10 10 6 0 10 -4 10 -10z m-15 -30 c-3 -5 -12 -10 -18 -10 -7 0 -6
4 3 10 19 12 23 12 15 0z m-1870 -367 c0 -13 -5 -23 -10 -22 -6 0 -9 6 -7 11
2 6 -4 8 -12 5 -12 -5 -15 10 -7 30 1 1 9 1 19 0 13 -1 18 -8 17 -24z m1631
-124 c0 -11 -3 -19 -6 -19 -3 0 -13 8 -22 19 -15 17 -14 19 6 19 15 0 22 -7
22 -19z m-1906 -53 c0 -2 -7 -9 -15 -16 -13 -11 -14 -10 -9 4 5 14 24 23 24
12z m20 -31 c11 -13 10 -14 -4 -9 -9 3 -16 10 -16 15 0 13 6 11 20 -6z m1940
-75 c0 -5 -5 -10 -11 -10 -5 0 -7 5 -4 10 3 6 8 10 11 10 2 0 4 -4 4 -10z m80
-49 c0 -5 -7 -12 -16 -15 -14 -5 -15 -4 -4 9 14 17 20 19 20 6z m-2086 -113
c-3 -5 -10 -5 -16 -2 -8 5 -9 1 -5 -10 5 -11 3 -15 -5 -10 -8 5 -9 1 -4 -12 5
-14 4 -16 -4 -8 -15 15 2 51 24 51 8 0 13 -4 10 -9z m6 -74 c0 -8 -19 -13 -24
-6 -3 5 1 9 9 9 8 0 15 -2 15 -3z m-63 -115 c2 -22 -8 -24 -25 -7 -17 17 -15
24 6 25 11 1 18 -6 19 -18z m2193 6 c-7 -8 -20 -15 -29 -15 -11 0 -8 5 9 14
33 19 35 19 20 1z m0 -35 c0 -4 -7 -7 -15 -6 -23 3 -26 12 -5 13 11 1 20 -2
20 -7z m-2660 -274 c0 -3 -4 -8 -10 -11 -5 -3 -10 -1 -10 4 0 6 5 11 10 11 6
0 10 -2 10 -4z m30 -6 c0 -5 -4 -10 -10 -10 -5 0 -10 5 -10 10 0 6 5 10 10 10
6 0 10 -4 10 -10z m3090 3 c-8 -4 -23 -16 -33 -27 -18 -21 -18 -20 -1 7 9 15
24 27 33 26 13 0 13 -2 1 -6z m60 -3 c0 8 3 11 6 8 11 -12 -15 -44 -38 -45
-17 -2 -19 0 -8 7 8 5 18 6 22 4 4 -3 8 -1 8 5 0 15 -18 23 -25 11 -3 -5 -14
-10 -23 -10 -12 0 -10 4 8 14 16 8 29 9 38 3 8 -6 12 -5 12 3z m-165 -20 c-3
-5 -12 -10 -18 -10 -7 0 -6 4 3 10 19 12 23 12 15 0z m35 0 c0 -5 -5 -10 -11
-10 -5 0 -7 5 -4 10 3 6 8 10 11 10 2 0 4 -4 4 -10z m360 -36 c0 -8 -19 -13
-24 -6 -3 5 1 9 9 9 8 0 15 -2 15 -3z m280 -64 c0 -5 -4 -10 -10 -10 -5 0 -10
5 -10 10 0 6 5 10 10 10 6 0 10 -4 10 -10z m-4237 -27 c-4 -10 -9 -11 -19 -2
-18 15 -18 15 5 15 11 0 17 -5 14 -13z m4262 -11 c-3 -3 -11 0 -18 7 -9 10 -8
11 6 5 10 -3 15 -9 12 -12z m-55 2 c0 -8 -19 -13 -24 -6 -3 5 1 9 9 9 8 0 15
-2 15 -3z m330 -168 c0 -23 -16 -27 -31 -8 -13 16 -13 16 5 2 18 -14 19 -13
13 3 -3 9 -2 17 3 17 6 0 10 -6 10 -14z"/>
<path d="M2251 4722 c-1 -7 -5 -11 -9 -8 -5 3 -9 -1 -9 -8 0 -8 7 -13 16 -11
16 2 17 5 8 28 -4 9 -6 9 -6 -1z"/>
<path d="M2339 4714 c-8 -10 -15 -11 -24 -4 -9 8 -15 8 -20 0 -8 -12 -10 -12
46 -14 36 -2 46 1 44 13 -2 19 -31 23 -46 5z m36 -3 c-9 -8 -36 -10 -30 -2 2
4 11 8 20 8 8 0 13 -3 10 -6z"/>
<path d="M3753 4015 c0 -8 4 -12 9 -9 5 3 6 10 3 15 -9 13 -12 11 -12 -6z"/>
<path d="M3750 3255 c-7 -9 -11 -17 -9 -20 3 -2 10 5 17 15 14 24 10 26 -8 5z"/>
<path d="M3743 3207 c0 -8 6 -14 14 -14 9 0 10 4 2 14 -6 7 -12 13 -14 13 -1
0 -2 -6 -2 -13z"/>
<path d="M1730 2076 c0 -2 7 -7 16 -10 8 -3 12 -2 9 4 -6 10 -25 14 -25 6z"/>
<path d="M2628 4783 c7 -3 16 -2 19 1 4 3 -2 6 -13 5 -11 0 -14 -3 -6 -6z"/>
<path d="M1800 4611 c0 -6 4 -13 10 -16 6 -3 7 1 4 9 -7 18 -14 21 -14 7z"/>
<path d="M1775 4580 c-3 -5 -1 -10 4 -10 6 0 11 5 11 10 0 6 -2 10 -4 10 -3 0
-8 -4 -11 -10z"/>
<path d="M1587 4483 c-10 -22 0 -37 26 -38 18 -1 25 1 18 8 -5 5 -7 17 -4 26
4 11 1 10 -11 -4 -13 -16 -15 -17 -10 -2 6 16 -11 25 -19 10z"/>
<path d="M3516 4398 c3 -5 10 -6 15 -3 13 9 11 12 -6 12 -8 0 -12 -4 -9 -9z"/>
<path d="M3576 4318 c3 -4 11 -5 19 -1 21 7 19 12 -4 10 -11 0 -18 -5 -15 -9z"/>
<path d="M3635 4289 c-4 -6 -5 -12 -2 -15 2 -3 7 2 10 11 7 17 1 20 -8 4z"/>
<path d="M1264 4026 c1 -11 9 -22 17 -24 11 -3 11 -1 -1 7 -13 10 -13 11 0 12
8 1 18 1 22 0 4 0 5 6 2 13 -9 23 -44 15 -40 -8z"/>
<path d="M1233 3909 c-2 -23 3 -25 10 -4 4 8 3 16 -1 19 -4 3 -9 -4 -9 -15z"/>
<path d="M1208 3883 c6 -2 10 -9 7 -14 -4 -5 1 -6 10 -2 13 5 14 7 3 14 -7 5
-17 8 -23 8 -5 0 -4 -3 3 -6z"/>
<path d="M3819 3722 c7 -12 17 -20 24 -17 7 4 3 0 -7 -9 -10 -8 -23 -13 -29
-9 -6 3 -7 1 -3 -5 4 -7 17 -11 30 -10 17 2 22 8 22 30 0 18 -4 27 -12 24 -6
-2 -17 1 -24 7 -10 10 -10 7 -1 -11z"/>
<path d="M1293 3703 c4 -3 2 -12 -5 -20 -9 -11 -8 -13 3 -11 28 6 34 38 7 38
-6 0 -8 -3 -5 -7z"/>
<path d="M1265 3632 c-10 -10 -5 -22 9 -22 8 0 16 -7 20 -15 5 -14 -5 -20 -27
-16 -5 1 -6 -3 -2 -9 4 -7 12 -7 26 0 16 9 17 15 9 31 -6 11 -9 23 -6 28 5 8
-21 11 -29 3z"/>
<path d="M3747 3013 c-3 -7 -2 -111 2 -136 0 -5 5 -6 9 -3 9 5 9 76 1 91 -4 6
-5 20 -4 33 2 23 -1 28 -8 15z"/>
<path d="M3745 2808 c8 -20 45 -25 45 -7 0 6 -6 9 -14 6 -7 -3 -19 0 -25 6 -9
9 -11 8 -6 -5z"/>
<path d="M3776 2767 c3 -10 9 -15 12 -12 3 3 0 11 -7 18 -10 9 -11 8 -5 -6z"/>
<path d="M3750 2740 c0 -5 5 -10 10 -10 6 0 10 5 10 10 0 6 -4 10 -10 10 -5 0
-10 -4 -10 -10z"/>
<path d="M1395 2551 c-3 -5 -2 -12 3 -15 5 -3 9 1 9 9 0 17 -3 19 -12 6z"/>
<path d="M3625 2390 c-3 -6 1 -7 9 -4 18 7 21 14 7 14 -6 0 -13 -4 -16 -10z"/>
<path d="M1450 2359 c0 -5 5 -7 10 -4 6 3 10 8 10 11 0 2 -4 4 -10 4 -5 0 -10
-5 -10 -11z"/>
<path d="M1483 2364 c3 -4 -4 -15 -16 -26 -12 -11 -17 -17 -11 -14 7 3 18 -2
25 -11 12 -14 11 -15 -10 -8 -17 5 -22 4 -19 -5 2 -7 17 -14 33 -16 19 -2 25
0 16 5 -11 7 -11 9 0 14 12 5 12 6 0 6 -11 1 -11 4 0 18 12 14 12 15 0 9 -10
-7 -12 -3 -6 13 4 14 2 21 -6 21 -7 0 -10 -3 -6 -6z"/>
<path d="M1494 2256 c1 -8 5 -18 8 -22 4 -3 5 1 4 10 -1 8 -5 18 -8 22 -4 3
-5 -1 -4 -10z"/>
<path d="M3585 2250 c3 -5 10 -10 16 -10 5 0 9 5 9 10 0 6 -7 10 -16 10 -8 0
-12 -4 -9 -10z"/>
<path d="M3433 2165 c0 -7 7 -11 15 -7 11 4 13 1 7 -8 -5 -9 -4 -11 3 -6 16
10 15 14 -6 25 -14 7 -19 6 -19 -4z"/>
<path d="M1585 2160 c-3 -6 1 -7 9 -4 18 7 21 14 7 14 -6 0 -13 -4 -16 -10z"/>
<path d="M3445 2119 c-3 -4 2 -6 10 -5 21 3 28 13 10 13 -9 0 -18 -4 -20 -8z"/>
<path d="M3580 1626 c0 -2 8 -10 18 -17 15 -13 16 -12 3 4 -13 16 -21 21 -21
13z"/>
<path d="M3586 1562 c-3 -5 1 -9 9 -9 8 0 12 4 9 9 -3 4 -7 8 -9 8 -2 0 -6 -4
-9 -8z"/>
<path d="M3590 1499 c0 -5 5 -7 10 -4 6 3 10 8 10 11 0 2 -4 4 -10 4 -5 0 -10
-5 -10 -11z"/>
<path d="M1295 1247 c-13 -10 -15 -16 -6 -21 14 -9 24 -2 27 19 3 18 2 18 -21
2z"/>
<path d="M1106 1193 c-4 -9 -1 -21 5 -27 9 -8 10 -8 5 2 -4 7 -2 19 4 27 7 9
8 15 2 15 -5 0 -13 -8 -16 -17z"/>
<path d="M756 1131 c-4 -7 -5 -15 -2 -18 9 -9 19 4 14 18 -4 11 -6 11 -12 0z"/>
<path d="M705 1120 c-3 -6 1 -7 9 -4 18 7 21 14 7 14 -6 0 -13 -4 -16 -10z"/>
<path d="M4390 1056 c0 -2 8 -10 18 -17 15 -13 16 -12 3 4 -13 16 -21 21 -21
13z"/>
<path d="M506 1042 c-3 -5 1 -9 9 -9 8 0 15 4 15 9 0 4 -4 8 -9 8 -6 0 -12 -4
-15 -8z"/>
<path d="M255 989 c-1 -22 3 -26 19 -23 24 4 46 24 27 24 -10 0 -11 3 -3 13 9
11 6 13 -16 13 -23 0 -27 -4 -27 -27z m31 6 c-2 -14 -16 -22 -16 -10 0 3 0 10
0 15 0 6 4 10 9 10 5 0 8 -7 7 -15z"/>
<path d="M4766 1002 c-3 -5 1 -9 9 -9 8 0 15 4 15 9 0 4 -4 8 -9 8 -6 0 -12
-4 -15 -8z"/>
<path d="M113 915 c0 -8 4 -12 9 -9 5 3 6 10 3 15 -9 13 -12 11 -12 -6z"/>
<path d="M4911 874 c0 -11 3 -14 6 -6 3 7 2 16 -1 19 -3 4 -6 -2 -5 -13z"/>
</g>
</svg>
